# xmcd
#
# Track frame offsets: 
#        150
#        12447
#        24596
#        35389
#        47288
#        57949
#        72220
#        82745
#        95794
#        109533
#        124155
#        136736
#        150597
#        164741
#        177564
#        191170
#        202301
#        215305
#        228438
#        238126
#        251153
#        264273
#        276226
#        288239
#        301908
#        315854
#
# Disc length: 4366 seconds
#
# Revision: 0
# Processed by: cddbd v1.5.2PL0 Copyright (c) Steve Scherf et al.
# Submitted via: ExactAudioCopy v1.0b3
#
DISCID=6e110c1a
DTITLE=T-Bone Walker - The Ultimate Collection 1929-57 - Disc 4
DYEAR=2014
DGENRE=Blues
TTITLE0=Life Is Too Short
TTITLE1=I Get So Weary
TTITLE2=You Just Wanted to Use Me
TTITLE3=Tell Me What's the Reason
TTITLE4=I'm About To Lose My Mind
TTITLE5=Cold Cold Feeling
TTITLE6=News For You Baby
TTITLE7=I Got the Blues Again
TTITLE8=Get These Blues Off Me
TTITLE9=I Got the Blues
TTITLE10=Blues Is a Woman
TTITLE11=Street Walking Woman
TTITLE12=Through With Woman
TTITLE13=Blue Mood
TTITLE14=Here in the Dark
TTITLE15=Every Time
TTITLE16=I Miss You Baby
TTITLE17=Lollie Lou
TTITLE18=Party Girl
TTITLE19=Love Is Just A Gamble
TTITLE20=High Society
TTITLE21=Got No Use For You
TTITLE22=Railroad Station Blues
TTITLE23=Long Distance Blues
TTITLE24=I'm Still In Love With You
TTITLE25=My Baby Is Now On My Mind
EXTD=
EXTT0=
EXTT1=
EXTT2=
EXTT3=
EXTT4=
EXTT5=
EXTT6=
EXTT7=
EXTT8=
EXTT9=
EXTT10=
EXTT11=
EXTT12=
EXTT13=
EXTT14=
EXTT15=
EXTT16=
EXTT17=
EXTT18=
EXTT19=
EXTT20=
EXTT21=
EXTT22=
EXTT23=
EXTT24=
EXTT25=
PLAYORDER=
